{"title":"Mr.robot.s02e11.720p.hdtv.x265-killers[GreatIndiaRipper]","uid":15848742,"size":175230143,"categoryP":"video","categoryS":"tv_shows","magnet":"?xt=urn:btih:edb45a85042a5cc3b0a93d82018293e85a6a95e4&amp;dn=Mr.robot.s02e11.720p.hdtv.x265-killers%5BGreatIndiaRipper%5D&amp;tr=udp%3A%2F%2Ftracker.leechers-paradise.org%3A6969&amp;tr=udp%3A%2F%2Fzer0day.ch%3A1337&amp;tr=udp%3A%2F%2Fopen.demonii.com%3A1337&amp;tr=udp%3A%2F%2Ftracker.coppersurfer.tk%3A6969&amp;tr=udp%3A%2F%2Fexodus.desync.com%3A6969","seeders":4,"leechers":1,"uploader":"greatindiaripper","files":3,"time":1474137635,"description":"General\r\n\r\nFormat                      : Matroska\r\nFormat version              : Version 4 / Version 2\r\nFile size                   : 167 MiB\r\nDuration                    : 45 min\r\nOverall bit rate            : 514 kb/s\r\nMovie name                  : Mr.robot.s02e11.720p.hdtv.x265-killers[GreatIndiaRipper]\r\n\r\n\r\nVideo\r\nID                          : 1\r\nFormat                      : HEVC\r\nFormat/Info                 : High Efficiency Video Coding\r\nFormat profile              :   @Main\r\nCodec ID                    : V_MPEGH/ISO/HEVC\r\nDuration                    : 45 min\r\nBit rate                    : 398 kb/s\r\nWidth                       : 1 280 pixels\r\nHeight                      : 674 pixels\r\nDisplay aspect ratio        : 1.899\r\nOriginal display aspect rat : 1.900\r\nFrame rate mode             : Constant\r\nFrame rate                  : 23.976 (24000/1001) FPS\r\nColor space                 : YUV\r\nChroma subsampling          : 4:2:0\r\nBit depth                   : 8 bits\r\nBits/(Pixel*Frame)          : 0.019\r\nStream size                 : 129 MiB (78%)\r\nTitle                       : Mr.robot.s02e11.720p.hdtv.x265-killers[GreatIndiaRipper]\r\n\r\n\r\nAudio\r\nID                          : 2\r\nFormat                      : AAC\r\nFormat/Info                 : Advanced Audio Codec\r\nFormat profile              : LC\r\nCodec ID                    : A_AAC\r\nDuration                    : 45 min\r\nBit rate                    : 113 kb/s\r\nChannel(s)                  : 2 channels\r\nChannel positions           : Front: L R\r\nSampling rate               : 44.1 kHz\r\nFrame rate                  : 43.066 FPS (1024 spf)\r\nCompression mode            : Lossy\r\nDelay relative to video     : 188 ms\r\nStream size                 : 36.8 MiB (22%)\r\nTitle                       : Mr.robot.s02e11.720p.hdtv.x265-killers[GreatIndiaRipper]\r\nLanguage                    : English\r\nDefault                     : Yes\r\nForced                      : No","torrent":{"xt":"urn:btih:edb45a85042a5cc3b0a93d82018293e85a6a95e4","amp;dn":"Mr.robot.s02e11.720p.hdtv.x265-killers%5BGreatIndiaRipper%5D","amp;tr":["udp%3A%2F%2Ftracker.leechers-paradise.org%3A6969","udp%3A%2F%2Fzer0day.ch%3A1337","udp%3A%2F%2Fopen.demonii.com%3A1337","udp%3A%2F%2Ftracker.coppersurfer.tk%3A6969","udp%3A%2F%2Fexodus.desync.com%3A6969"],"infoHash":"edb45a85042a5cc3b0a93d82018293e85a6a95e4","infoHashBuffer":{"type":"Buffer","data":[237,180,90,133,4,42,92,195,176,169,61,130,1,130,147,232,90,106,149,228]},"announce":[],"urlList":[]}}